HIERARCHY
ROOT Hips
{
	OFFSET 0.000000 0.000000 0.000000 
	CHANNELS 6 Xposition Yposition Zposition Zrotation Yrotation Xrotation
	JOINT LeftUpLeg
	{
		OFFSET 1.363060 -1.794630 0.839290 
		CHANNELS 3 Zrotation Yrotation Xrotation
		JOINT LeftLeg
		{
			OFFSET 2.448110 -6.726130 0.000000 
			CHANNELS 3 Zrotation Yrotation Xrotation
			JOINT LeftFoot
			{
				OFFSET 2.562200 -7.039590 0.000000 
				CHANNELS 3 Zrotation Yrotation Xrotation
				JOINT LeftToeBase
				{
					OFFSET 0.157640 -0.433110 2.322550 
					CHANNELS 3 Zrotation Yrotation Xrotation
					End Site
					{
						OFFSET 0.000000 0.000000 0.000000 
					}
				}
			}
		}
	}
	JOINT RightUpLeg
	{
		OFFSET -1.305520 -1.794630 0.839290 
		CHANNELS 3 Zrotation Yrotation Xrotation
		JOINT RightLeg
		{
			OFFSET -2.542530 -6.985550 0.000000 
			CHANNELS 3 Zrotation Yrotation Xrotation
			JOINT RightFoot
			{
				OFFSET -2.568260 -7.056230 0.000000 
				CHANNELS 3 Zrotation Yrotation Xrotation
				JOINT RightToeBase
				{
					OFFSET -0.164730 -0.452590 2.363150 
					CHANNELS 3 Zrotation Yrotation Xrotation
					End Site
					{
						OFFSET 0.000000 0.000000 0.000000 
					}
				}
			}
		}
	}
	JOINT Spine
	{
		OFFSET 0.028270 2.035590 -0.193380 
		CHANNELS 3 Zrotation Yrotation Xrotation
		JOINT Spine1
		{
			OFFSET 0.056720 2.048850 -0.042750 
			CHANNELS 3 Zrotation Yrotation Xrotation
			JOINT Neck1
			{
				OFFSET -0.054170 1.746240 0.172020 
				CHANNELS 3 Zrotation Yrotation Xrotation
				JOINT Head
				{
					OFFSET 0.104070 1.761360 -0.123970 
					CHANNELS 3 Zrotation Yrotation Xrotation
					End Site
					{
						OFFSET 0.000000 0.000000 0.000000 
					}
				}
			}
			JOINT LeftArm
			{
				OFFSET 3.362410 1.200890 -0.311210 
				CHANNELS 3 Zrotation Yrotation Xrotation
				JOINT LeftForeArm
				{
					OFFSET 4.983000 -0.000000 -0.000000 
					CHANNELS 3 Zrotation Yrotation Xrotation
					JOINT LeftHand
					{
						OFFSET 3.483560 -0.000000 -0.000000 
						CHANNELS 3 Zrotation Yrotation Xrotation
						JOINT LeftHandIndex1
						{
							OFFSET 0.715260 -0.000000 -0.000000 
							CHANNELS 3 Zrotation Yrotation Xrotation
							End Site
							{
								OFFSET 0.000000 0.000000 0.000000 
							}
						}
					}
				}
			}
			JOINT RightArm
			{
				OFFSET -3.136600 1.374050 -0.404650 
				CHANNELS 3 Zrotation Yrotation Xrotation
				JOINT RightForeArm
				{
					OFFSET -5.241900 -0.000000 -0.000000 
					CHANNELS 3 Zrotation Yrotation Xrotation
					JOINT RightHand
					{
						OFFSET -3.444170 -0.000000 -0.000000 
						CHANNELS 3 Zrotation Yrotation Xrotation
						JOINT RightHandIndex1
						{
							OFFSET -0.622530 -0.000000 -0.000000 
							CHANNELS 3 Zrotation Yrotation Xrotation
							End Site
							{
								OFFSET 0.000000 0.000000 0.000000 
							}
						}
					}
				}
			}
		}
	}
}
MOTION
Frames: 9
Frame Time: 0.041667
33.696922 15.197740 7.753420 -35.461579 74.062076 -22.207337 -10.133787 5.253161 -54.317234 15.330757 20.576722 77.138234 0.872680 6.873611 -27.653477 0.104200 2.081200 5.730200 4.763455 1.300151 -31.274227 -6.627230 -16.034267 48.861284 -0.457767 -4.778970 -17.690621 -2.404600 9.662300 -27.890000 -1.416548 3.401240 1.170648 -1.537857 2.563527 -2.507025 -0.287063 10.739296 -7.279007 -0.019700 4.761100 5.329400 -80.668264 -41.487942 127.197218 38.441213 -44.908166 -13.890742 0.673639 -0.426292 -4.987170 -7.125000 0.000000 0.000000 64.759550 10.156947 43.856711 -11.964204 23.849844 -3.830150 -0.066004 1.948286 -52.215816 7.125000 0.000000 0.000000 
33.747787 15.255795 7.738933 -36.383476 74.340871 -23.019914 -10.173641 4.781522 -53.841761 15.081827 20.594233 76.460663 0.891866 6.937500 -27.886999 0.144600 2.450500 6.752500 5.258863 1.482366 -31.900527 -6.624991 -16.099890 48.901275 -0.468666 -4.639700 -17.704508 -2.277000 9.420600 -27.120000 -1.337228 3.211601 1.107566 -1.143248 2.439179 -2.655907 -0.028542 10.723887 -7.076584 0.101000 4.757500 5.556500 -80.159142 -41.336276 126.521242 38.541068 -44.928834 -13.916803 0.655005 -0.405442 -5.911102 -7.125000 0.000000 0.000000 64.561503 10.205427 44.551441 -12.396482 24.263248 -3.968735 -0.061554 1.968203 -52.469340 7.125000 0.000000 0.000000 
33.802564 15.319773 7.722542 -37.256900 74.734165 -23.831001 -10.294405 4.147692 -53.221926 14.790833 20.621845 75.683197 0.885370 7.117645 -28.149956 0.177500 2.713800 7.482800 5.688584 1.501817 -32.549524 -6.649155 -16.168227 49.031791 -0.462624 -4.607277 -17.616477 -2.157600 9.186900 -26.381700 -1.200729 3.018514 0.924569 -0.616418 2.332420 -3.367777 -0.476465 10.732906 -7.298330 -0.191600 4.715900 5.480000 -79.965785 -40.562673 125.885091 38.543474 -44.946172 -13.882081 0.623183 -0.375738 -7.597781 -7.125000 0.000000 0.000000 64.104626 9.513679 45.725156 -13.114200 24.987436 -4.203314 -0.097265 1.987729 -53.195712 7.125000 0.000000 0.000000 
33.863158 15.382693 7.705939 -37.770412 75.198713 -24.289539 -10.579585 3.490712 -52.477271 14.469663 20.658174 74.842824 0.850230 7.429981 -28.453264 0.169600 2.653100 7.314400 6.016735 1.291429 -33.238563 -6.701876 -16.237638 49.251390 -0.479228 -4.412300 -17.637224 -2.179200 9.229800 -26.516800 -1.136782 2.789984 0.868124 -0.321479 2.209006 -3.501630 -0.572868 10.711572 -7.330683 -0.275100 4.691600 5.473200 -79.728167 -40.077372 125.217558 38.500138 -44.938168 -13.840813 0.600181 -0.372111 -9.992042 -7.125000 0.000000 0.000000 63.728809 9.164867 46.958635 -13.900703 25.791371 -4.457584 -0.148841 1.995965 -54.005818 7.125000 0.000000 0.000000 
33.923223 15.443815 7.691875 -38.725189 75.589186 -25.205455 -10.765179 2.953043 -51.666385 14.147804 20.667340 73.976549 0.858733 7.543139 -28.706498 0.178600 2.721900 7.505500 6.573979 1.159912 -33.967135 -6.762826 -16.344254 49.526530 -0.507444 -4.243969 -17.854120 -2.154300 9.180400 -26.361100 -1.077243 2.623259 0.824188 -0.198463 2.124554 -3.658650 -0.726201 10.526329 -7.400210 -0.431400 4.583800 5.442100 -79.424594 -39.623600 124.488817 38.580068 -45.012076 -13.883859 0.573876 -0.378300 -12.902616 -7.125000 0.000000 0.000000 63.426944 8.856987 48.156094 -14.742209 26.517339 -4.520638 -0.152494 1.954288 -54.567512 7.125000 0.000000 0.000000 
33.979269 15.502716 7.679926 -39.312179 75.769044 -25.679153 -10.919905 2.710282 -51.053236 13.842501 20.639949 73.128810 0.872027 7.547322 -28.818385 0.203000 2.901000 8.003300 7.198069 1.426289 -34.934578 -6.834447 -16.504224 49.886022 -0.520384 -4.193266 -18.019840 -2.087800 9.046600 -25.941200 -1.031390 2.653862 0.790314 -0.185086 2.129697 -3.706151 -0.723319 10.430146 -7.172790 -0.416600 4.519900 5.576000 -79.286942 -39.294087 123.908509 38.734306 -45.142661 -13.981998 0.544374 -0.392718 -15.391372 -7.125000 0.000000 0.000000 63.059096 8.545431 48.748945 -15.573704 27.342353 -4.769145 -0.167531 1.949329 -55.095654 7.125000 0.000000 0.000000 
34.050437 15.573250 7.659833 -39.704897 76.329725 -26.133734 -11.343428 2.263887 -50.207949 13.502887 20.641978 72.226313 0.825832 7.777498 -28.933698 0.185200 2.771800 7.643900 7.641760 1.138772 -35.611859 -6.942581 -16.626614 50.320306 -0.550746 -3.928753 -18.146725 -1.994400 8.854300 -25.340700 -1.001938 2.403822 0.888730 -0.139164 1.991592 -3.379076 -0.942524 10.510301 -7.152017 -0.483100 4.528200 5.668500 -78.782436 -39.413216 123.202448 38.664462 -45.061388 -13.919612 0.505691 -0.377387 -16.162039 -7.125000 0.000000 0.000000 62.623403 8.687002 49.496536 -16.525441 28.309951 -5.155272 -0.196012 1.974195 -55.833403 7.125000 0.000000 0.000000 
34.131440 15.647696 7.636146 -40.453123 76.989887 -26.953762 -11.808642 1.794569 -49.325291 13.160314 20.635007 71.317952 0.753754 8.066101 -28.988112 0.174400 2.690000 7.417000 8.234840 0.500740 -36.458047 -7.095048 -16.760460 50.901770 -0.546059 -3.847522 -18.033878 -1.962100 8.786700 -25.130500 -0.902326 2.103869 0.835175 0.125835 1.825213 -3.533297 -0.918054 10.716680 -6.542581 -0.439400 4.588600 6.010000 -78.599137 -38.906845 122.347733 38.549580 -45.014749 -13.837760 0.476950 -0.401467 -18.074646 -7.125000 0.000000 0.000000 61.914134 8.156572 50.659423 -17.663306 29.445640 -5.621523 -0.247966 1.997407 -57.088818 7.125000 0.000000 0.000000 
34.205780 15.716644 7.618486 -40.897499 77.464377 -27.383478 -12.250135 1.653088 -48.552139 12.831448 20.593736 70.411358 0.722321 8.093127 -28.877971 0.198900 2.871500 7.921200 8.948748 0.257116 -37.597804 -7.275638 -16.972980 51.634883 -0.545673 -3.724514 -17.948160 -1.968400 8.799900 -25.171500 -0.967302 1.971599 0.966675 -0.587580 1.796889 -3.098358 -1.935549 10.771474 -6.495772 -1.034700 4.505100 6.110300 -77.897388 -38.857317 121.689993 38.663131 -45.069269 -13.911744 0.401985 -0.415735 -21.809459 -7.125000 0.000000 0.000000 61.842284 8.171219 51.251105 -18.820008 30.637696 -6.130826 -0.248889 2.013746 -58.393498 7.125000 0.000000 0.000000 
